<?xml version="1.0" standalone="no"?>
<svg xmlns:xlink="http://www.w3.org/1999/xlink" id="wave" style="transform:rotate(180deg); transition: 0.3s" viewBox="0 0 1440 150" version="1.1" xmlns="http://www.w3.org/2000/svg"><defs><linearGradient id="sw-gradient-0" x1="0" x2="0" y1="1" y2="0"><stop stop-color="rgba(0, 0, 0, 1)" offset="0%"/><stop stop-color="rgba(0, 0, 0, 1)" offset="100%"/></linearGradient></defs><path style="transform:translate(0, 0px); opacity:1" fill="url(#sw-gradient-0)" d="M0,45L21.8,37.5C43.6,30,87,15,131,27.5C174.5,40,218,80,262,90C305.5,100,349,80,393,62.5C436.4,45,480,30,524,27.5C567.3,25,611,35,655,42.5C698.2,50,742,55,785,60C829.1,65,873,70,916,75C960,80,1004,85,1047,95C1090.9,105,1135,120,1178,117.5C1221.8,115,1265,95,1309,82.5C1352.7,70,1396,65,1440,52.5C1483.6,40,1527,20,1571,20C1614.5,20,1658,40,1702,52.5C1745.5,65,1789,70,1833,77.5C1876.4,85,1920,95,1964,90C2007.3,85,2051,65,2095,65C2138.2,65,2182,85,2225,97.5C2269.1,110,2313,115,2356,120C2400,125,2444,130,2487,132.5C2530.9,135,2575,135,2618,132.5C2661.8,130,2705,125,2749,112.5C2792.7,100,2836,80,2880,75C2923.6,70,2967,80,3011,72.5C3054.5,65,3098,40,3120,27.5L3141.8,15L3141.8,150L3120,150C3098.2,150,3055,150,3011,150C2967.3,150,2924,150,2880,150C2836.4,150,2793,150,2749,150C2705.5,150,2662,150,2618,150C2574.5,150,2531,150,2487,150C2443.6,150,2400,150,2356,150C2312.7,150,2269,150,2225,150C2181.8,150,2138,150,2095,150C2050.9,150,2007,150,1964,150C1920,150,1876,150,1833,150C1789.1,150,1745,150,1702,150C1658.2,150,1615,150,1571,150C1527.3,150,1484,150,1440,150C1396.4,150,1353,150,1309,150C1265.5,150,1222,150,1178,150C1134.5,150,1091,150,1047,150C1003.6,150,960,150,916,150C872.7,150,829,150,785,150C741.8,150,698,150,655,150C610.9,150,567,150,524,150C480,150,436,150,393,150C349.1,150,305,150,262,150C218.2,150,175,150,131,150C87.3,150,44,150,22,150L0,150Z"/></svg>